<svg width="24" height="24" viewBox="0 0 24 24" fill="none" xmlns="http://www.w3.org/2000/svg">
<mask id="mask0_1429_11427" style="mask-type:alpha" maskUnits="userSpaceOnUse" x="0" y="0" width="24" height="24">
<path fill-rule="evenodd" clip-rule="evenodd" d="M0 0H24V24H0V0Z" fill="white"/>
</mask>
<g mask="url(#mask0_1429_11427)">
<path fill-rule="evenodd" clip-rule="evenodd" d="M12.0076 24C18.6206 24 24.0155 18.6297 24.0155 11.9999C24.0155 5.37025 18.6206 0 12.0076 0C5.39387 0 0 5.39039 0 11.9999C0 18.6086 5.39387 24 12.0076 24ZM12.0075 1.69328C17.691 1.69328 22.3199 6.31999 22.3199 11.9998C22.3199 17.6796 17.691 22.3055 12.0075 22.3055C6.32404 22.3055 1.69434 17.6796 1.69434 11.9998C1.69434 6.31999 6.32404 1.69328 12.0075 1.69328Z" fill="#011E41"/>
</g>
<path fill-rule="evenodd" clip-rule="evenodd" d="M10.2929 16.4279C10.4091 16.5452 10.5555 16.604 10.7161 16.604C10.8625 16.604 11.0238 16.5452 11.14 16.4279L14.9998 12.5583C15.1167 12.4416 15.1752 12.2948 15.1752 12.1331C15.1752 11.972 15.1167 11.8255 14.9998 11.7087L11.14 7.83911C10.9067 7.60441 10.5262 7.60441 10.2929 7.83911C10.0586 8.07307 10.0586 8.45452 10.2929 8.68922L13.7278 12.1331L10.2929 15.5777C10.0586 15.8124 10.0586 16.1931 10.2929 16.4279Z" fill="#011E41" stroke="#011E41" stroke-width="0.5"/>
</svg>
