<svg width="180" height="41" viewBox="0 0 180 41" fill="none" xmlns="http://www.w3.org/2000/svg">
<path fill-rule="evenodd" clip-rule="evenodd" d="M41.0884 40.8422H0V0H41.0884V40.8422ZM24.4114 2.59889C23.2469 2.3683 21.8496 2.19445 20.5375 2.19445C10.7642 2.19445 2.86766 9.97522 2.23044 19.4607L6.11615 19.466C15.4083 19.466 24.4114 11.8518 24.4114 2.59889ZM24.4093 38.2437C24.4093 29 15.4093 21.3928 6.11885 21.3928H2.22752C2.59703 30.8366 10.7602 38.6417 20.5371 38.6546C21.7798 38.6546 23.2465 38.4799 24.4093 38.2437ZM26.3355 3.12017C33.5979 5.48531 38.8458 12.3289 38.8657 20.4141C38.8857 28.3673 33.743 35.1947 26.3355 37.7163V3.12017Z" fill="white"/>
<path d="M54.8428 24.2552V21.681H63.3923V18.3986H54.8414V13.6202H63.9373V10.3467H51.3418V17.3829V24.1066C51.3418 27.5844 52.8325 29.9638 56.331 30.4526C56.4013 30.47 56.4701 30.4825 56.5337 30.4837H56.5978C56.9558 30.5234 57.3225 30.5502 57.7052 30.5502H64.1808V27.28H57.7344C56.622 27.28 54.8428 26.7347 54.8428 24.2552Z" fill="white"/>
<path d="M66.668 19.8928V30.5547H70.169V19.8229V10.3408H66.668V19.8928Z" fill="white"/>
<path fill-rule="evenodd" clip-rule="evenodd" d="M72.4707 23.2242C72.4707 18.5054 75.7825 15.4756 80.2078 15.4756C84.6039 15.4756 87.5057 18.7676 87.5057 22.8751C87.5057 22.8751 87.5057 23.5157 87.4469 24.0982H75.9585C76.0755 26.4287 77.8046 27.9436 80.4128 27.9436C82.201 27.9436 83.285 27.3608 84.3992 26.254L86.5091 28.2933C84.6039 30.3032 82.5233 30.915 80.2958 30.915C75.6655 30.915 72.4707 27.9436 72.4707 23.341V23.2242ZM80.208 18.4472C78.0101 18.4472 76.1929 19.8743 76.0464 21.6514H83.9301C83.9301 19.9037 82.2594 18.4472 80.208 18.4472Z" fill="white"/>
<path d="M97.3426 18.5934C98.9255 18.5934 100.098 19.1759 101.094 20.1955L103.263 17.9525C101.563 16.1464 99.5408 15.418 97.3426 15.418C92.8878 15.418 89.3125 18.7097 89.3125 23.1959C89.3125 27.6822 92.8878 30.9739 97.3426 30.9739C99.5408 30.9739 101.563 30.2455 103.263 28.4397L101.094 26.1961C100.098 27.216 98.9255 27.7985 97.3426 27.7985C94.7637 27.7985 92.8 25.8467 92.8 23.1959C92.8 20.5452 94.7637 18.5934 97.3426 18.5934Z" fill="white"/>
<path d="M108.942 24.2601L108.938 24.2599V19.0994H112.123V15.938H108.943V10.3418H105.441V17.5921V24.4653L105.451 24.4647C105.551 27.748 107.053 29.9857 110.431 30.4575C110.501 30.4749 110.569 30.4877 110.633 30.4888H110.697C111.056 30.5283 111.422 30.5551 111.805 30.5551H112.175L112.188 27.2852H111.834C110.722 27.2852 108.942 26.7399 108.942 24.2601Z" fill="white"/>
<path d="M118.541 18.1127V15.939H115.068V23.1021V30.5555H118.541V22.8698C118.541 20.4627 120.087 18.9545 122.509 18.9545C123.063 18.9545 123.56 19.0121 123.968 19.0999V15.7355C123.822 15.707 123.297 15.6494 122.918 15.6494C120.816 15.6494 119.241 16.6061 118.541 18.1127Z" fill="white"/>
<path fill-rule="evenodd" clip-rule="evenodd" d="M124.506 23.2469C124.506 18.8669 128.066 15.5039 132.53 15.5039C136.964 15.5039 140.554 18.8669 140.554 23.2469C140.554 27.6248 136.964 30.9903 132.53 30.9903C128.066 30.9903 124.506 27.6248 124.506 23.2469ZM127.979 23.247C127.979 25.8279 129.934 27.8294 132.53 27.8294C135.099 27.8294 137.081 25.8279 137.081 23.247C137.081 20.6649 135.099 18.6645 132.53 18.6645C129.934 18.6645 127.979 20.6649 127.979 23.247Z" fill="white"/>
<path d="M142.705 19.544V30.5544H146.208V19.6837V10.3408H142.705V19.544Z" fill="white"/>
<path d="M158.837 24.4351C158.837 26.7546 157.466 27.7418 155.627 27.7418C153.788 27.7418 152.418 26.7546 152.418 24.4652V15.9385H148.887V20.1724V24.7551C148.887 28.9314 151.95 30.9323 155.598 30.9323C159.275 30.9323 162.366 28.9026 162.366 24.6676V20.1721V15.9385H158.837V24.4351Z" fill="white"/>
<path d="M175.614 25.8804L173.406 22.8117L176.14 19.1094L178.482 15.9385H174.66L171.479 20.3174L168.269 15.9385H164.477L166.652 18.8956L169.554 22.8402L166.512 27.0503L163.98 30.5547H167.744L171.479 25.3921L175.214 30.5547H178.978L175.614 25.8804Z" fill="white"/>
</svg>
