<svg id="Layer_1" data-name="Layer 1" xmlns="http://www.w3.org/2000/svg" width="90px" height="34px" viewBox="0 0 90 34"><defs><style>.cls-1{fill:#cf2031;}</style></defs><path class="cls-1" d="M36.34,0l2,5.21L27.15,33.49H31.6l3.19-8H46.3l3.14,8H58.5L45.39,0Zm0,21.62,4.27-10.76L44.8,21.62Z" transform="translate(-27.15 0)"/><polygon class="cls-1" points="43.7 18.52 54.29 18.52 55.85 14.6 43.7 14.6 43.7 4.03 56.98 4.03 58.59 0 35.22 0 35.22 33.49 57.33 33.49 58.93 29.46 43.7 29.46 43.7 18.52"/><path class="cls-1" d="M103.35,18.52h5.59V29.85a8.68,8.68,0,0,1-2.24.29c-7.54,0-9.74-7-9.74-13.16C97,11.05,98.85,4,106.13,4h7.77l1.6-4H105.22c-10,0-17,6.89-17,17S95,34,105.45,34a32.07,32.07,0,0,0,11.4-2V14.6H104.91Z" transform="translate(-27.15 0)"/></svg>