<svg width="50" height="50" viewBox="0 0 50 50" fill="none" xmlns="http://www.w3.org/2000/svg">
<path fill-rule="evenodd" clip-rule="evenodd" d="M25 46.25C36.7361 46.25 46.25 36.7361 46.25 25C46.25 13.2639 36.7361 3.75 25 3.75C13.2639 3.75 3.75 13.2639 3.75 25C3.75 36.7361 13.2639 46.25 25 46.25ZM25 50C38.8071 50 50 38.8071 50 25C50 11.1929 38.8071 0 25 0C11.1929 0 0 11.1929 0 25C0 38.8071 11.1929 50 25 50Z" fill=""/>
<path fill-rule="evenodd" clip-rule="evenodd" d="M25.0007 18.75C26.1512 18.75 27.084 19.5895 27.084 20.625V35.625C27.084 36.6605 26.1512 37.5 25.0007 37.5C23.8501 37.5 22.9173 36.6605 22.9173 35.625V20.625C22.9173 19.5895 23.8501 18.75 25.0007 18.75Z" fill=""/>
<path d="M27.0827 14.5833C27.0827 15.7339 26.1499 16.6667 24.9993 16.6667C23.8488 16.6667 22.916 15.7339 22.916 14.5833C22.916 13.4327 23.8488 12.5 24.9993 12.5C26.1499 12.5 27.0827 13.4327 27.0827 14.5833Z" fill=""/>
</svg>
