<svg width="24" height="24" viewBox="0 0 24 24" fill="none" xmlns="http://www.w3.org/2000/svg">
<path fill-rule="evenodd" clip-rule="evenodd" d="M0 12C0 5.38332 5.38332 0 12 0C18.6167 0 24 5.38332 24 12C24 18.6167 18.6167 24 12 24C5.38332 24 0 18.6167 0 12ZM1.50001 12C1.50001 17.7898 6.2102 22.5 12 22.5C17.7898 22.5 22.5 17.7898 22.5 12C22.5 6.2102 17.7898 1.50001 12 1.50001C6.2102 1.50001 1.50001 6.2102 1.50001 12Z" fill=""/>
<path d="M12.6996 4.28516H11.1426V12.2994L16.0417 17.1423L17.1426 16.0541L12.6996 11.6621V4.28516Z" fill=""/>
</svg>
