<svg width="20" height="20" viewBox="0 0 20 20" fill="none" xmlns="http://www.w3.org/2000/svg">
<path fill-rule="evenodd" clip-rule="evenodd" d="M9.67612 1.66663C5.25253 1.66663 1.6665 5.17345 1.6665 9.49934C1.6665 13.8252 5.25253 17.3321 9.67612 17.3321C11.5681 17.3321 13.3068 16.6906 14.6773 15.6179L17.2807 18.1572L17.35 18.2155C17.5917 18.3904 17.9344 18.3705 18.1531 18.1561C18.3936 17.9202 18.3931 17.5382 18.1519 17.303L15.5791 14.7935C16.8873 13.3994 17.6857 11.5406 17.6857 9.49934C17.6857 5.17345 14.0997 1.66663 9.67612 1.66663ZM9.67612 2.87307C13.4184 2.87307 16.452 5.83976 16.452 9.49934C16.452 13.1589 13.4184 16.1256 9.67612 16.1256C5.93388 16.1256 2.9002 13.1589 2.9002 9.49934C2.9002 5.83976 5.93388 2.87307 9.67612 2.87307Z" fill=""/>
</svg>
