<svg width="64" height="64" viewBox="0 0 64 64" fill="none" xmlns="http://www.w3.org/2000/svg">
<path fill-rule="evenodd" clip-rule="evenodd" d="M2.45508 0.47168H9V3.47168H3.45508V8H0.455078V2.47168C0.455078 1.36711 1.35051 0.47168 2.45508 0.47168ZM0.455078 56V61.5283C0.455078 62.6329 1.35051 63.5283 2.45508 63.5283H9V60.5283H3.45508V56H0.455078ZM55 63.5283H61.7573C62.8618 63.5283 63.7573 62.6329 63.7573 61.5283V56H60.7573V60.5283H55V63.5283ZM63.7573 2.47168V8H60.7573V3.47168H55V0.47168H61.7573C62.8618 0.47168 63.7573 1.36711 63.7573 2.47168Z" fill="#011E41"/>
<g opacity="0.6">
<path d="M23 8H8V23H23V8ZM20 20H11V11H20V20Z" fill="#011E41"/>
<path d="M17 14H14V17H17V14Z" fill="#011E41"/>
<path d="M41 8V23H56V8H41ZM53 20H44V11H53V20Z" fill="#011E41"/>
<path d="M50 14H47V17H50V14Z" fill="#011E41"/>
<path d="M8 56H23V41H8V56ZM11 44H20V53H11V44Z" fill="#011E41"/>
<path d="M17 47H14V50H17V47Z" fill="#011E41"/>
<path d="M38 8H32V11H38V8Z" fill="#011E41"/>
<path d="M32 20H35V17H38V14H29V11H26V14V15.5V17H32V20Z" fill="#011E41"/>
<path d="M29 20H26V23H29V20Z" fill="#011E41"/>
<path d="M38 23H35V26H26V29H38V23Z" fill="#011E41"/>
<path d="M11 35H14V32H11V26H8V38H11V35Z" fill="#011E41"/>
<path d="M17 26H14V29H17V26Z" fill="#011E41"/>
<path d="M26 38H32V35H29V32H23V26H20V32H17V38H20V35H21.5H23H26V38Z" fill="#011E41"/>
<path d="M38 32H35V38H38V32Z" fill="#011E41"/>
<path d="M35 41H26V44H32V53H26V56H35V53H41V50H35V41Z" fill="#011E41"/>
<path d="M29 47H26V50H29V47Z" fill="#011E41"/>
<path d="M41 41H38V47H41V41Z" fill="#011E41"/>
<path d="M53 47H44V56H47V50H53V47Z" fill="#011E41"/>
<path d="M56 53H50V56H56V53Z" fill="#011E41"/>
<path d="M56 41H53V44H56V41Z" fill="#011E41"/>
<path d="M44 44H47V35H41V38H44V44Z" fill="#011E41"/>
<path d="M50 29H47V26H44V29H41V32H53V29H56V26H50V29Z" fill="#011E41"/>
<path d="M56 35H50V38H56V35Z" fill="#011E41"/>
</g>
</svg>
