<svg width="37" height="37" viewBox="0 0 37 37" fill="none" xmlns="http://www.w3.org/2000/svg">
<path fill-rule="evenodd" clip-rule="evenodd" d="M18.4263 0.198764C17.4683 0.198764 16.6917 0.975528 16.6917 1.93381V7.57219C16.6917 8.53031 17.4683 9.30724 18.4263 9.30724C19.3843 9.30724 20.1615 8.53031 20.1615 7.57224V1.9337C20.1615 0.975472 19.3843 0.198764 18.4263 0.198764Z" fill=""/>
<path fill-rule="evenodd" clip-rule="evenodd" d="M18.4263 27.0903C17.4683 27.0903 16.6917 27.8671 16.6917 28.8253V34.4638C16.6917 35.422 17.4683 36.1988 18.4263 36.1988C19.3843 36.1988 20.1615 35.422 20.1615 34.4638V28.8253C20.1615 27.8671 19.3843 27.0903 18.4263 27.0903" fill="" fill-opacity="0.4"/>
<path fill-rule="evenodd" clip-rule="evenodd" d="M36.4263 18.1989C36.4263 17.2406 35.6496 16.4639 34.6911 16.4639H29.0529C28.0949 16.4639 27.3177 17.2406 27.3177 18.1989C27.3177 19.1569 28.0949 19.9337 29.0529 19.9337L34.6911 19.9336C35.6496 19.9336 36.4263 19.1569 36.4263 18.1989Z" fill="" fill-opacity="0.1"/>
<path fill-rule="evenodd" clip-rule="evenodd" d="M9.53483 18.1989C9.53483 17.2406 8.75817 16.4639 7.79963 16.4639H2.16146C1.20346 16.4639 0.42627 17.2406 0.42627 18.1989C0.42627 19.1569 1.20346 19.9337 2.16146 19.9337L7.80016 19.9336C8.75817 19.9336 9.53483 19.1569 9.53483 18.1989Z" fill="" fill-opacity="0.7"/>
<path fill-rule="evenodd" clip-rule="evenodd" d="M27.7215 2.78444C26.9011 2.28965 25.8348 2.55369 25.3398 3.3743L22.4279 8.20289C21.9334 9.02329 22.1975 10.0897 23.0179 10.5845C23.8383 11.0793 24.9046 10.8151 25.3996 9.99459L28.3114 5.16604C28.8059 4.34559 28.5419 3.27924 27.7215 2.78444Z" fill="" fill-opacity="0.02"/>
<path fill-rule="evenodd" clip-rule="evenodd" d="M13.8347 25.813C13.0143 25.3182 11.948 25.5823 11.453 26.4029L8.54163 31.2315C8.04663 32.0519 8.31067 33.1183 9.13105 33.6131C9.95198 34.1079 11.0183 33.8437 11.5127 33.0232L14.4246 28.1946C14.9196 27.3742 14.6556 26.3078 13.8347 25.813" fill="" fill-opacity="0.5"/>
<path fill-rule="evenodd" clip-rule="evenodd" d="M33.8403 27.4939C34.3353 26.6734 34.0712 25.6072 33.2508 25.1122L28.4224 22.2006C27.6015 21.7058 26.5352 21.9699 26.0407 22.7903C25.5457 23.6109 25.8098 24.6771 26.6301 25.172L31.4591 28.0837C32.2795 28.5785 33.3458 28.3145 33.8403 27.4939" fill="" fill-opacity="0.2"/>
<path fill-rule="evenodd" clip-rule="evenodd" d="M10.8123 13.6073C11.3068 12.7866 11.0428 11.7204 10.2224 11.2256L5.39394 8.3138C4.57355 7.81916 3.50673 8.08304 3.01226 8.90365C2.51725 9.72415 2.78129 10.7905 3.60221 11.2853L8.43066 14.197C9.25105 14.6917 10.3173 14.4277 10.8123 13.6073Z" fill="" fill-opacity="0.8"/>
<path fill-rule="evenodd" clip-rule="evenodd" d="M34.1203 9.38393C33.6509 8.54844 32.5932 8.25176 31.7578 8.7209L26.8419 11.4822C26.0066 11.9513 25.7095 13.009 26.1789 13.8444C26.6478 14.6798 27.7055 14.9768 28.5408 14.5075L33.4573 11.7462C34.2926 11.2769 34.5892 10.2194 34.1203 9.38393" fill="" fill-opacity="0.05"/>
<path fill-rule="evenodd" clip-rule="evenodd" d="M10.6742 22.5531C10.2048 21.7177 9.14706 21.4207 8.31173 21.8901L3.39581 24.6513C2.56048 25.1204 2.26337 26.1781 2.73277 27.0136C3.20164 27.849 4.2594 28.1458 5.09472 27.6767L10.0112 24.9154C10.8465 24.4461 11.1431 23.3885 10.6742 22.5531" fill="" fill-opacity="0.6"/>
<path fill-rule="evenodd" clip-rule="evenodd" d="M27.2409 33.8926C28.0768 33.4234 28.3733 32.3658 27.9039 31.5304L25.143 26.6143C24.6736 25.7789 23.6158 25.4819 22.7805 25.9512C21.9452 26.4204 21.6486 27.4781 22.1175 28.3135L24.879 33.2296C25.3484 34.065 26.4056 34.362 27.2409 33.8926" fill="" fill-opacity="0.3"/>
<path fill-rule="evenodd" clip-rule="evenodd" d="M14.072 10.4463C14.9073 9.97704 15.2044 8.91949 14.735 8.08405L11.9736 3.16792C11.5047 2.33243 10.4469 2.03558 9.61162 2.50483C8.7763 2.97413 8.47919 4.03184 8.94859 4.86712L11.7095 9.78325C12.1789 10.6187 13.2367 10.9156 14.072 10.4463" fill="" fill-opacity="0.9"/>
</svg>
