<svg width="18" height="24" viewBox="0 0 18 24" fill="none" xmlns="http://www.w3.org/2000/svg">
<path fill-rule="evenodd" clip-rule="evenodd" d="M16.1722 0.803582C16.4951 0.507641 16.96 0.435707 17.3547 0.620712C17.7516 0.800378 18.0053 1.20332 17.9998 1.64543V22.3543C18.0017 22.6304 17.903 22.8975 17.7227 23.1038C17.3204 23.5644 16.6273 23.6058 16.1748 23.1962L14.641 21.8152L12.5555 23.7133C12.1366 24.0952 11.5024 24.0952 11.0834 23.7133L8.99992 21.8169L6.91674 23.7136C6.49789 24.0955 5.86376 24.0955 5.4449 23.7136L3.36002 21.8153L1.82761 23.1964C1.62492 23.3798 1.36271 23.4804 1.09155 23.4788C0.485137 23.4751 -0.00356261 22.9718 2.63036e-05 22.3546V1.64543C-0.00185097 1.3695 0.0968165 1.10261 0.276925 0.896365C0.679214 0.435707 1.37226 0.394176 1.82485 0.803638L3.3587 2.18466L5.44413 0.286444C5.86309 -0.0954812 6.49728 -0.0954812 6.91625 0.286444L8.99992 2.18286L11.0831 0.286444C11.5019 -0.0954812 12.1361 -0.0954812 12.5549 0.286444L14.6398 2.18466L16.1722 0.803582ZM13.9039 20.9773C14.3208 20.5973 14.9514 20.5956 15.3703 20.9733L16.901 22.3541L16.8955 15.8812V1.64543L15.3673 3.02651C14.9499 3.40417 14.3205 3.40242 13.9051 3.02247L11.8194 1.12431L9.73597 3.02072C9.31706 3.40265 8.68288 3.40265 8.26397 3.02072L6.18074 1.12431L4.09591 3.02247C3.67899 3.40248 3.04845 3.40417 2.62954 3.02646L1.09879 1.64572L1.10431 19.3583V22.3539L2.63258 20.9733C3.04994 20.5956 3.67938 20.5974 4.0947 20.9773L6.18041 22.8755L8.26386 20.9791C8.68277 20.5971 9.31695 20.5971 9.73586 20.9791L11.8191 22.8755L13.9039 20.9773Z" fill=""/>
<path d="M14.4752 11H4.52484C4.23497 11 4 11.2239 4 11.5C4 11.7761 4.23497 12 4.52484 12H14.4752C14.765 12 15 11.7761 15 11.5C15 11.2239 14.765 11 14.4752 11Z" fill=""/>
<path d="M9.41465 8H3.58535C3.26206 8 3 8.22385 3 8.5C3 8.77615 3.26206 9 3.58535 9H9.41465C9.73794 9 10 8.77615 10 8.5C10 8.22385 9.73788 8 9.41465 8Z" fill=""/>
<path d="M14.4752 15H4.52484C4.23497 15 4 15.2239 4 15.5C4 15.7761 4.23497 16 4.52484 16H14.4752C14.765 16 15 15.7761 15 15.5C15 15.2239 14.765 15 14.4752 15Z" fill=""/>
</svg>
