<?xml version="1.0" encoding="UTF-8"?>
<!-- Generator: Adobe Illustrator 25.1.0, SVG Export Plug-In . SVG Version: 6.00 Build 0)  -->
<svg version="1.1" id="Layer_1" xmlns:cc="http://creativecommons.org/ns#" xmlns:dc="http://purl.org/dc/elements/1.1/" xmlns:rdf="http://www.w3.org/1999/02/22-rdf-syntax-ns#" xmlns:svg="http://www.w3.org/2000/svg" xmlns="http://www.w3.org/2000/svg" xmlns:xlink="http://www.w3.org/1999/xlink" x="0px" y="0px" viewBox="0 0 177.4 23.9" style="enable-background:new 0 0 177.4 23.9;" xml:space="preserve">
<style type="text/css">
	.st0{fill:#0065A4;}
</style>
<g transform="translate(-255.557, -576.953)">
	<path class="st0" d="M381,586.5h4.4l0.1,0.7c2-1.8,5.3-1.6,5.5,0.3c0.3,3.5-6.1,5.5-5.2,1.6c0.1-1-0.6-0.8-0.9,0.1l-3,5.3h-5.2   L381,586.5L381,586.5z M368.4,594.6c-3.7-0.4-5.7-2.5-4.5-4.9c1.2-2.3,5.1-3.9,8.7-3.6c3.7,0.4,5.7,2.5,4.5,4.9   C376,593.4,372.1,595,368.4,594.6 M370.5,592.1l1.8-3.6c0.5-0.9,0-1.1-0.7-1c-0.7,0.1-1.2,0.5-1.5,0.9l-2,3.8   c-0.3,0.7,0.5,0.8,1.2,0.7C370,592.9,370.3,592.5,370.5,592.1 M357.5,583.6h5.1l-1.7,3l2.1,0l-1.2,1.9l-1.9,0l-1.7,3.2   c-0.9,1.7,0.5,1.6,1.6,1.6l2.4-0.1l-0.9,1.4l-6.4,0c-3.2,0-3-1.1-2.2-2.3l2.1-3.8l-2.2,0l1.1-1.9l2.2,0.1L357.5,583.6L357.5,583.6z    M346.3,587.4l0.4-0.8h5.1l-3.3,6.1c-0.2,0.6,0.5,0.6,0.7,0.6h1.9l-0.6,1.4h-6.1c-0.8,0-0.6-0.7-0.6-1c-1.7,1.9-9.9,1.5-7.4-3.6   C337.3,587.6,342.1,585.3,346.3,587.4 M343.8,591.9l1.5-2.9c0.5-0.9-0.3-1-0.7-1c-0.5,0-1.1,0.4-1.3,0.9l-1.6,3   c-0.3,0.7,0.4,1.1,1.1,1C343.4,592.7,343.6,592.3,343.8,591.9 M322.5,586.6h5.1l-0.1,0.6c2.6-1.8,8.4-0.5,6.8,3.1l-1.1,2.1   c-0.2,0.5-0.2,0.8,0.4,0.8h1.2l-0.5,1.4h-6.4c-1.2,0-1.4-1-0.9-1.8l1.5-2.8c1.7-2.4-1.6-2.1-2.1-1.2l-3.2,5.8h-5L322.5,586.6   L322.5,586.6z M313.8,583.1c0-1.1,1.5-2,3.4-2c1.9,0,3.4,0.9,3.4,2s-1.5,2-3.4,2C315.3,585.1,313.8,584.2,313.8,583.1 M313.2,586.6   h5l-3,5.6c-0.2,0.2-0.5,1.1,0.4,1.1h1.2l-0.7,1.4h-4.3c-1.2,0-2.4-1.1-1.6-2.5L313.2,586.6L313.2,586.6z M298.9,586.6h5.3v5.4   l5.5-5.4h1.8l-7.5,8h-5V586.6L298.9,586.6z M294,583.6h5l-4.5,8.4c-0.4,0.8-0.8,1.2,0.1,1.2h2.4l-0.6,1.3h-5.1   c-3.2,0-2.2-2-1.6-3.1L294,583.6L294,583.6z M288.9,591.4l-7.4,0c-0.3,0.7-0.5,0.9-0.6,1.1c0,0.5,0.4,0.6,0.9,0.6h5.3l-0.6,1.4   l-6,0c-4.8,0.1-4.7-2.8-4.8-3.4c0-3.1,3.5-4.7,7-4.7c3.5,0,6.3,1.6,6.3,3.5C289.2,590.5,289.2,591,288.9,591.4 M282.2,589.8h1.9   C285.2,587.5,283.4,587.1,282.2,589.8 M261.8,583.6h6.7l-2.7,4.9l9.6-4.9h3l-8.8,5l3.5,3.9c0.4,0.6,0.6,0.7,1,0.7h1.7l-0.8,1.4   h-7.3l-3.2-3.5l-1.9,3.5h-6.6L261.8,583.6L261.8,583.6z M421.3,585.4c0,0,0.1-0.1,0.1-0.2c0-0.1-0.1-0.2-0.2-0.2h-2.2   c-1.2,1.3-6.6,3.7-8,3.7c0,0-3.2-1.4-4.2-3.9c0.6-2.2,5.1-5.3,7-5.6l8.1,5.8l7.2,0c0.2,0,0.5-0.2,0.5-0.5c0-0.1,0-0.2,0-0.2   c-0.9-2.6-5.6-5.7-13.6-5.2l-2.6-2c9.3-1,17.7,2.9,18.1,7.8c-0.5,1.8-1.5,3.4-4.4,5.1c-0.8,0.5-1.2,1.8,0.2,2.1   c3.5,1.3,4.5,1.5,5.6,2.6c0.2,0.3-0.2,0.3-0.2,0.2c-5.8-2.7-23.2-0.9-30.5,0.3c-0.2,0-0.1-0.2,0.1-0.3c7.5-2.5,12.6-2.2,13-3.5   c0.4-1.3-2.5-0.8-2.1-1.6C414.8,589.3,419.8,586.7,421.3,585.4 M417.6,584.9c0.3,0,0.4-0.2,0.4-0.4c0-0.1-0.1-0.3-0.2-0.3   c-1.1-0.9-4.3-3.6-4.3-3.6c-0.3-0.2-0.4-0.1-0.4-0.1c-1.7,0.6-4.7,3-5.1,3.8c-0.2,0.4-0.4,0.7,0.2,0.7H417.6L417.6,584.9z    M402.2,596.1c0-0.1-0.2-0.2,0.1-0.2c7.3-1.4,25.4-1.1,30.4,0.1c0.1,0,0.3,0.2,0.1,0.3c-5.2,1.1-5.7,5.3-6.6,4.5   C423.3,598.1,406.6,595.7,402.2,596.1"/>
</g>
</svg>