<svg width="60" height="60" viewBox="0 0 60 60" fill="none" xmlns="http://www.w3.org/2000/svg">
<path d="M45.2041 5.14244V54.8575H14.7959V5.14244H45.2041ZM43.7561 6.59045H16.2439V53.4094H43.7561V6.59045ZM30 44.0851C31.7585 44.0851 33.1829 45.5149 33.1829 47.2773C33.1829 49.0397 31.7585 50.4695 30 50.4695C28.2415 50.4695 26.8171 49.0397 26.8171 47.2773C26.8171 45.5149 28.2415 44.0851 30 44.0851ZM30 45.5331C29.0425 45.5331 28.2651 46.3134 28.2651 47.2773C28.2651 48.2412 29.0425 49.0215 30 49.0215C30.9575 49.0215 31.7349 48.2412 31.7349 47.2773C31.7349 46.3134 30.9575 45.5331 30 45.5331Z" fill="#011E41"/>
<path d="M33.552 9.77168H27.5414V10.737H33.552V9.77168Z" fill="#011E41"/>
<path d="M44.4803 40.9697H15.5201V40.487H44.4803V40.9697Z" fill="#011E41"/>
</svg>
