<?xml version="1.0" encoding="utf-8"?>
<!-- Generator: Adobe Illustrator 23.0.1, SVG Export Plug-In . SVG Version: 6.00 Build 0)  -->
<svg version="1.1" id="Layer_1" xmlns="http://www.w3.org/2000/svg" xmlns:xlink="http://www.w3.org/1999/xlink" x="0px" y="0px"
	 viewBox="0 0 165 165" style="enable-background:new 0 0 165 165;" xml:space="preserve">
<style type="text/css">
	.st0{opacity:6.000000e-02;}
	.st1{fill-rule:evenodd;clip-rule:evenodd;fill:#011E41;}
</style>
<g id="Page-1">
	<g id="Artboard" transform="translate(-123.000000, -531.000000)">
		<g transform="translate(123.000000, 531.000000)">
			<g transform="translate(384.000000, 282.000000)" class="st0">
				<g id="Group-13">
					<path id="Fill-1" class="st1" d="M-378.4-198.6c8.6,0,16.9,7.1,16.9,15.6c-1.1,0.2-2.4,0.4-3.6,0.4c-9,0-16.5-7.3-16.9-16
						H-378.4z M-365.1-216.4c1.2,0,2.5,0.2,3.6,0.4c0,8.6-8.3,15.7-16.9,15.7l-3.6,0C-381.4-209.2-374.1-216.4-365.1-216.4
						L-365.1-216.4z M-359.7-215.6c6.7,2.2,11.5,8.5,11.6,16c0,7.4-4.7,13.7-11.6,16.1V-215.6z M-384-180.5h37.9v-37.9H-384V-180.5z
						"/>
					<path id="Fill-4" class="st1" d="M-333.4-195.9v-2.4h7.9v-3h-7.9v-4.4h8.4v-3h-11.6v6.5v6.2c0,3.2,1.4,5.4,4.6,5.9
						c0.1,0,0.1,0,0.2,0h0.1c0.3,0,0.7,0.1,1,0.1h6v-3h-5.9C-331.8-193.1-333.4-193.6-333.4-195.9"/>
					<polygon id="Fill-6" class="st1" points="-322.5,-200 -322.5,-190.1 -319.3,-190.1 -319.3,-200.1 -319.3,-208.9 -322.5,-208.9 
											"/>
					<path id="Fill-8" class="st1" d="M-313.9-198.4c0.1-1.6,1.8-3,3.8-3c1.9,0,3.4,1.4,3.4,3H-313.9z M-310.1-204.1
						c-4.1,0-7.1,2.8-7.1,7.2v0.1c0,4.3,2.9,7,7.2,7c2.1,0,4-0.6,5.7-2.4l-1.9-1.9c-1,1-2,1.6-3.7,1.6c-2.4,0-4-1.4-4.1-3.6h10.6
						c0.1-0.5,0.1-1.1,0.1-1.1C-303.3-201-306-204.1-310.1-204.1L-310.1-204.1z"/>
					<path id="Fill-10" class="st1" d="M-294.3-201.2c1.5,0,2.5,0.5,3.5,1.5l2-2.1c-1.6-1.7-3.4-2.4-5.5-2.4c-4.1,0-7.4,3.1-7.4,7.2
						s3.3,7.2,7.4,7.2c2,0,3.9-0.7,5.5-2.4l-2-2.1c-0.9,0.9-2,1.5-3.5,1.5c-2.4,0-4.2-1.8-4.2-4.3S-296.6-201.2-294.3-201.2"/>
					<path id="Fill-12" class="st1" d="M-283.6-195.9L-283.6-195.9l0-4.8h2.9v-2.9h-2.9v-5.2h-3.2v6.7v6.4l0,0
						c0.1,3,1.5,5.1,4.6,5.6c0.1,0,0.1,0,0.2,0h0.1c0.3,0,0.7,0.1,1,0.1h0.3l0-3h-0.3C-281.9-193.1-283.6-193.6-283.6-195.9"/>
					<path id="Fill-14" class="st1" d="M-274.7-201.6v-2h-3.2v6.6v6.9h3.2v-7.1c0-2.2,1.4-3.6,3.7-3.6c0.5,0,1,0.1,1.3,0.1v-3.1
						c-0.1,0-0.6-0.1-1-0.1C-272.6-203.9-274.1-203-274.7-201.6"/>
					<path id="Fill-16" class="st1" d="M-261.8-192.6c-2.4,0-4.2-1.9-4.2-4.3c0-2.4,1.8-4.3,4.2-4.3c2.4,0,4.2,1.9,4.2,4.3
						C-257.6-194.5-259.5-192.6-261.8-192.6 M-261.8-204.1c-4.1,0-7.4,3.1-7.4,7.2c0,4.1,3.3,7.2,7.4,7.2c4.1,0,7.4-3.1,7.4-7.2
						C-254.4-200.9-257.7-204.1-261.8-204.1"/>
					<polygon id="Fill-18" class="st1" points="-252.4,-200.3 -252.4,-190.1 -249.2,-190.1 -249.2,-200.2 -249.2,-208.9 
						-252.4,-208.9 					"/>
					<path id="Fill-20" class="st1" d="M-237.6-195.8c0,2.2-1.3,3.1-3,3.1c-1.7,0-3-0.9-3-3v-7.9h-3.3v3.9v4.3
						c0,3.9,2.8,5.7,6.2,5.7c3.4,0,6.2-1.9,6.2-5.8v-4.2v-3.9h-3.3V-195.8z"/>
					<polygon id="Fill-22" class="st1" points="-222.1,-194.4 -224.1,-197.3 -221.6,-200.7 -219.5,-203.7 -223,-203.7 
						-225.9,-199.6 -228.9,-203.7 -232.4,-203.7 -230.4,-200.9 -227.7,-197.3 -230.5,-193.3 -232.8,-190.1 -229.4,-190.1 
						-225.9,-194.9 -222.5,-190.1 -219,-190.1 					"/>
				</g>
			</g>
		</g>
	</g>
</g>
</svg>
