<svg width="47" height="48" viewBox="0 0 47 48" fill="none" xmlns="http://www.w3.org/2000/svg">
<path fill-rule="evenodd" clip-rule="evenodd" d="M46.7186 47.2413H0.664062V0H46.7186V47.2413ZM28.0261 3.00599C26.7209 2.73927 25.1547 2.53818 23.684 2.53818C12.7295 2.53818 3.87853 11.538 3.1643 22.5097L7.51965 22.5158C17.9349 22.5158 28.0261 13.7086 28.0261 3.00599ZM28.0249 44.2372C28.0249 33.5452 17.9371 24.7461 7.52376 24.7461H3.16211C3.57627 35.6695 12.726 44.6975 23.6847 44.7124C25.0775 44.7124 26.7216 44.5103 28.0249 44.2372ZM30.1827 3.60893C38.3229 6.34464 44.2051 14.2605 44.2274 23.6124C44.2498 32.8118 38.4856 40.7089 30.1827 43.6256V3.60893Z" fill="white"/>
</svg>
