<svg width="144" height="33" viewBox="0 0 144 33" fill="none" xmlns="http://www.w3.org/2000/svg">
<path fill-rule="evenodd" clip-rule="evenodd" d="M32.8707 32.873H0V0H32.8707V32.873ZM19.529 2.09172C18.5974 1.90613 17.4795 1.7662 16.4299 1.7662C8.6112 1.7662 2.29397 8.02877 1.7842 15.6634L4.89276 15.6677C12.3265 15.6677 19.529 9.53918 19.529 2.09172ZM19.5276 30.7815C19.5276 23.3415 12.3276 17.2186 4.89524 17.2186H1.78217C2.07778 24.8197 8.60828 31.1018 16.4299 31.1122C17.424 31.1122 18.5974 30.9716 19.5276 30.7815ZM21.0684 2.51128C26.8784 4.41494 31.0766 9.9232 31.0926 16.4308C31.1086 22.8321 26.9944 28.3273 21.0684 30.357V2.51128Z" fill="#011E41"/>
<path d="M43.8731 19.5218V17.4499H50.7127V14.8079H43.872V10.9619H51.1487V8.32715H41.0723V13.9904V19.4022C41.0723 22.2014 42.2648 24.1165 45.0636 24.51C45.1198 24.5239 45.1749 24.5341 45.2258 24.535H45.2771C45.5635 24.5669 45.8568 24.5885 46.163 24.5885H51.3435V21.9564H46.1864C45.2964 21.9564 43.8731 21.5175 43.8731 19.5218Z" fill="#011E41"/>
<path d="M53.334 16.0114V24.5929H56.1348V15.9552V8.32324H53.334V16.0114Z" fill="#011E41"/>
<path fill-rule="evenodd" clip-rule="evenodd" d="M57.9766 18.6928C57.9766 14.8947 60.626 12.4561 64.1662 12.4561C67.6831 12.4561 70.0045 15.1057 70.0045 18.4118C70.0045 18.4118 70.0045 18.9274 69.9575 19.3962H60.7668C60.8604 21.272 62.2437 22.4913 64.3302 22.4913C65.7608 22.4913 66.628 22.0222 67.5193 21.1314L69.2073 22.7727C67.6831 24.3904 66.0186 24.8829 64.2367 24.8829C60.5324 24.8829 57.9766 22.4913 57.9766 18.7868V18.6928ZM64.1662 14.8479C62.4079 14.8479 60.9542 15.9966 60.837 17.4269H67.1439C67.1439 16.0202 65.8074 14.8479 64.1662 14.8479Z" fill="#011E41"/>
<path d="M77.8733 14.965C79.1396 14.965 80.0775 15.4338 80.8746 16.2545L82.6097 14.4492C81.2498 12.9954 79.6319 12.4092 77.8733 12.4092C74.3094 12.4092 71.4492 15.0586 71.4492 18.6695C71.4492 22.2804 74.3094 24.9298 77.8733 24.9298C79.6319 24.9298 81.2498 24.3436 82.6097 22.8901L80.8746 21.0843C80.0775 21.9052 79.1396 22.374 77.8733 22.374C75.8102 22.374 74.2392 20.8031 74.2392 18.6695C74.2392 16.5359 75.8102 14.965 77.8733 14.965Z" fill="#011E41"/>
<path d="M87.1543 19.5258L87.151 19.5256V15.3721H89.6987V12.8275H87.1548V8.32324H84.3535V14.1588V19.6909L84.3614 19.6905C84.4413 22.3332 85.6428 24.1342 88.3448 24.514C88.4011 24.5279 88.456 24.5383 88.507 24.5392H88.5583C88.8449 24.5709 89.1381 24.5925 89.4445 24.5925H89.7407L89.7511 21.9606H89.4676C88.5777 21.9606 87.1543 21.5217 87.1543 19.5258Z" fill="#011E41"/>
<path d="M94.833 14.5783V12.8288H92.0547V18.5942V24.5933H94.833V18.4072C94.833 16.4698 96.0699 15.2559 98.0068 15.2559C98.4504 15.2559 98.848 15.3023 99.1744 15.3729V12.665C99.0574 12.642 98.6378 12.5957 98.3346 12.5957C96.653 12.5957 95.3927 13.3658 94.833 14.5783Z" fill="#011E41"/>
<path fill-rule="evenodd" clip-rule="evenodd" d="M99.6035 18.7107C99.6035 15.1853 102.451 12.4785 106.023 12.4785C109.57 12.4785 112.442 15.1853 112.442 18.7107C112.442 22.2343 109.57 24.9431 106.023 24.9431C102.451 24.9431 99.6035 22.2343 99.6035 18.7107ZM102.382 18.7107C102.382 20.788 103.946 22.399 106.023 22.399C108.078 22.399 109.664 20.788 109.664 18.7107C109.664 16.6325 108.078 15.0224 106.023 15.0224C103.946 15.0224 102.382 16.6325 102.382 18.7107Z" fill="#011E41"/>
<path d="M114.164 15.7307V24.5927H116.966V15.8431V8.32324H114.164V15.7307Z" fill="#011E41"/>
<path d="M127.07 19.6668C127.07 21.5338 125.973 22.3284 124.501 22.3284C123.031 22.3284 121.934 21.5338 121.934 19.6911V12.8281H119.109V16.2359V19.9244C119.109 23.2858 121.56 24.8964 124.478 24.8964C127.42 24.8964 129.893 23.2627 129.893 19.854V16.2357V12.8281H127.07V19.6668Z" fill="#011E41"/>
<path d="M140.49 20.8311L138.724 18.3612L140.911 15.3813L142.785 12.8291H139.727L137.182 16.3536L134.615 12.8291H131.58L133.321 15.2092L135.642 18.3842L133.209 21.7728L131.184 24.5934H134.195L137.182 20.4381L140.17 24.5934H143.181L140.49 20.8311Z" fill="#011E41"/>
</svg>
