<svg width="60" height="60" viewBox="0 0 60 60" fill="none" xmlns="http://www.w3.org/2000/svg">
<path d="M4.14284 29.9983C4.16814 26.5462 4.93307 23.1396 6.38606 20.0082C7.83906 16.8767 9.94638 14.093 12.566 11.8447C15.1857 9.59634 18.2568 7.93563 21.5724 6.97442C24.8881 6.01322 28.3713 5.77385 31.7872 6.27245C35.2032 6.77104 38.4726 7.99602 41.3752 9.86484C44.2778 11.7337 46.7461 14.2029 48.6138 17.1062C50.4815 20.0095 51.7053 23.2794 52.2026 26.6955C52.6999 30.1117 52.4592 33.5948 51.4967 36.9101H53.0552C54.4987 31.7359 54.2856 26.2396 52.4458 21.1927C50.606 16.1459 47.2319 11.8019 42.7971 8.77066C38.3623 5.7394 33.0896 4.17307 27.7192 4.29155C22.3488 4.41004 17.1503 6.20739 12.8535 9.43129C8.55679 12.6552 5.37753 17.1438 3.7621 22.2668C2.14667 27.3899 2.17619 32.8903 3.84649 37.9957C5.5168 43.1012 8.74404 47.5554 13.0751 50.733C17.4062 53.9106 22.6237 55.6521 27.9951 55.7129V54.1544C21.6451 54.0624 15.5857 51.4783 11.1237 46.9594C6.66162 42.4405 4.15444 36.3489 4.14284 29.9983Z" fill="black"/>
<path d="M51.2791 37.4867H52.8765L53.0401 36.9023H51.4817C51.4037 37.0971 51.3414 37.2919 51.2791 37.4867Z" fill="black"/>
<path d="M28.58 55.713V54.1546H27.9956V55.713H28.58Z" fill="black"/>
<path d="M49.4785 33.4893L51.598 38.3518L56.5929 36.2011" stroke="black" stroke-width="2"/>
<path d="M33.8705 39.3492H23.2886V34.4634L18.769 28.4399L22.3613 20.6476H25.3691L25.3146 25.6659L28.5796 27.6607L31.8445 25.6425L31.79 20.6476H34.7978L38.429 28.4399L33.9095 34.4945L33.8705 39.3492ZM24.4574 38.1803H32.7017V34.0738L37.042 28.2685L34.0498 21.7775H32.9744L33.0212 26.2815L28.5796 29.0243L24.1379 26.2815L24.1925 21.7775H23.1094L20.1249 28.2685L24.4574 34.0738V38.1803Z" fill="black"/>
</svg>
