<svg width="60" height="60" viewBox="0 0 60 60" fill="none" xmlns="http://www.w3.org/2000/svg">
<path d="M60 13.738H14.3195L11.8107 3.42815H0V5.11829H10.5089L12.7574 14.3416L18.6035 38.8728L18.6509 39.1143L19.787 43.8467C16.8047 44.3296 14.5325 46.9855 14.5325 50.1726C14.5325 53.6978 17.3491 56.571 20.8047 56.571C24.2604 56.571 27.0769 53.6978 27.0769 50.1726C27.0769 48.3135 26.2959 46.6233 25.0414 45.4644H41.3965C40.142 46.6233 39.3609 48.3135 39.3609 50.1726C39.3609 53.6978 42.1775 56.571 45.6331 56.571C49.0888 56.571 51.9053 53.6978 51.9053 50.1726C51.9053 46.6475 49.0888 43.7742 45.6331 43.7742H21.4911L20.3787 39.1143H53.3491L60 13.738ZM50.2722 50.1726C50.2722 52.7803 48.213 54.8809 45.6568 54.8809C43.1006 54.8809 41.0414 52.7803 41.0414 50.1726C41.0414 47.565 43.1006 45.4644 45.6568 45.4644C48.213 45.4644 50.2722 47.5891 50.2722 50.1726ZM25.4201 50.1726C25.4201 52.7803 23.3609 54.8809 20.8047 54.8809C18.2485 54.8809 16.1894 52.7803 16.1894 50.1726C16.1894 47.565 18.2485 45.4644 20.8047 45.4644C23.3609 45.4644 25.4201 47.5891 25.4201 50.1726ZM19.9763 37.4241L14.7219 15.4281H57.8462L52.071 37.4241H19.9763Z" fill="#011E41"/>
</svg>
