<svg width="60" height="60" viewBox="0 0 60 60" fill="none" xmlns="http://www.w3.org/2000/svg">
<path d="M52.4052 9.60666L30.1079 2.9518C29.8335 2.88319 29.4905 2.88319 29.216 2.9518L6.98743 9.60666V34.0307C6.98743 37.0494 8.22235 40.1367 10.6236 43.224C12.476 45.5566 15.0144 47.9579 18.1703 50.2219C23.5217 54.0639 28.8044 56.4651 29.0102 56.6024C29.216 56.671 29.4219 56.7396 29.6277 56.7396C29.8335 56.7396 30.0393 56.671 30.2451 56.6024C30.451 56.5337 35.7337 54.1325 41.085 50.2219C44.2409 47.8893 46.848 45.5566 48.6318 43.224C51.033 40.1367 52.2679 37.0494 52.2679 34.0307L52.4052 9.60666ZM50.8272 33.7563C50.8272 36.5692 49.6609 39.4506 47.4655 42.3321C45.7503 44.5275 43.3491 46.723 40.399 48.8498C35.3907 52.4859 30.5196 54.6814 30.3138 54.75C30.1079 54.8186 29.9021 54.8872 29.6963 54.8872C29.4905 54.8872 29.2847 54.8186 29.0788 54.75C28.873 54.6814 24.0019 52.4173 18.9936 48.8498C16.0435 46.723 13.6423 44.5275 11.9271 42.3321C9.7317 39.4506 8.56538 36.5692 8.56538 33.7563V11.0474L29.2847 4.87279C29.5591 4.80418 29.8335 4.80418 30.1079 4.87279L50.8272 11.0474V33.7563Z" fill="#011E41"/>
<path d="M19.714 28.1063L27.547 36L42.8568 20.5714" stroke="#011E41" stroke-width="1.5"/>
</svg>
