<svg width="90" height="90" viewBox="0 0 90 90" fill="none" xmlns="http://www.w3.org/2000/svg">
<circle cx="45.3012" cy="45.3012" r="23.4536" fill="#011E41"/>
<path fill-rule="evenodd" clip-rule="evenodd" d="M54.5697 38.2059H50.7613L50.2703 35.7564C50.1476 35.1438 49.6041 34.6992 48.9782 34.6992H41.6248C40.9989 34.6992 40.4554 35.1438 40.3327 35.7564L39.8417 38.2059H36.0333C34.9434 38.2059 34.0566 39.0908 34.0566 40.1785V51.5753C34.0566 52.6629 34.9434 53.5478 36.0333 53.5478H54.5697C55.6596 53.5478 56.5463 52.6629 56.5463 51.5753V40.1785C56.5463 39.0908 55.6596 38.2059 54.5697 38.2059ZM41.6248 36.0147H48.9782L49.4174 38.2064H41.1856L41.6248 36.0147ZM54.5703 52.2353C54.9336 52.2353 55.2292 51.9403 55.2292 51.5778V40.1809C55.2292 39.8184 54.9336 39.5234 54.5703 39.5234H36.0339C35.6706 39.5234 35.375 39.8184 35.375 40.1809V51.5778C35.375 51.9403 35.6706 52.2353 36.0339 52.2353H54.5703Z" fill="white"/>
<path d="M50.7613 38.2059L50.6142 38.2354L50.6383 38.3559H50.7613V38.2059ZM50.2703 35.7564L50.1232 35.7858L50.1232 35.7858L50.2703 35.7564ZM40.3327 35.7564L40.4797 35.7858L40.4798 35.7858L40.3327 35.7564ZM39.8417 38.2059V38.3559H39.9646L39.9888 38.2354L39.8417 38.2059ZM48.9782 36.0147L49.1252 35.9852L49.1011 35.8647H48.9782V36.0147ZM41.6248 36.0147V35.8647H41.5019L41.4777 35.9852L41.6248 36.0147ZM49.4174 38.2064V38.3564H49.6005L49.5645 38.1769L49.4174 38.2064ZM41.1856 38.2064L41.0385 38.1769L41.0025 38.3564H41.1856V38.2064ZM50.7613 38.3559H54.5697V38.0559H50.7613V38.3559ZM50.1232 35.7858L50.6142 38.2354L50.9083 38.1765L50.4174 35.7269L50.1232 35.7858ZM48.9782 34.8492C49.5329 34.8492 50.0146 35.2436 50.1232 35.7858L50.4174 35.7269C50.2806 35.0441 49.6754 34.5492 48.9782 34.5492V34.8492ZM41.6248 34.8492H48.9782V34.5492H41.6248V34.8492ZM40.4798 35.7858C40.5884 35.2436 41.0702 34.8492 41.6248 34.8492V34.5492C40.9276 34.5492 40.3224 35.0441 40.1856 35.7269L40.4798 35.7858ZM39.9888 38.2354L40.4797 35.7858L40.1856 35.7269L39.6946 38.1765L39.9888 38.2354ZM36.0333 38.3559H39.8417V38.0559H36.0333V38.3559ZM34.2066 40.1785C34.2066 39.1739 35.0259 38.3559 36.0333 38.3559V38.0559C34.8608 38.0559 33.9066 39.0077 33.9066 40.1785H34.2066ZM34.2066 51.5753V40.1785H33.9066V51.5753H34.2066ZM36.0333 53.3978C35.0259 53.3978 34.2066 52.5798 34.2066 51.5753H33.9066C33.9066 52.7461 34.8608 53.6978 36.0333 53.6978V53.3978ZM54.5697 53.3978H36.0333V53.6978H54.5697V53.3978ZM56.3963 51.5753C56.3963 52.5798 55.5771 53.3978 54.5697 53.3978V53.6978C55.7422 53.6978 56.6963 52.7461 56.6963 51.5753H56.3963ZM56.3963 40.1785V51.5753H56.6963V40.1785H56.3963ZM54.5697 38.3559C55.5771 38.3559 56.3963 39.1739 56.3963 40.1785H56.6963C56.6963 39.0077 55.7422 38.0559 54.5697 38.0559V38.3559ZM48.9782 35.8647H41.6248V36.1647H48.9782V35.8647ZM49.5645 38.1769L49.1252 35.9852L48.8311 36.0441L49.2703 38.2358L49.5645 38.1769ZM41.1856 38.3564H49.4174V38.0564H41.1856V38.3564ZM41.4777 35.9852L41.0385 38.1769L41.3326 38.2358L41.7719 36.0441L41.4777 35.9852ZM55.0792 51.5778C55.0792 51.8572 54.8511 52.0853 54.5703 52.0853V52.3853C55.0162 52.3853 55.3792 52.0234 55.3792 51.5778H55.0792ZM55.0792 40.1809V51.5778H55.3792V40.1809H55.0792ZM54.5703 39.6734C54.8511 39.6734 55.0792 39.9015 55.0792 40.1809H55.3792C55.3792 39.7353 55.0162 39.3734 54.5703 39.3734V39.6734ZM36.0339 39.6734H54.5703V39.3734H36.0339V39.6734ZM35.525 40.1809C35.525 39.9015 35.7531 39.6734 36.0339 39.6734V39.3734C35.588 39.3734 35.225 39.7353 35.225 40.1809H35.525ZM35.525 51.5778V40.1809H35.225V51.5778H35.525ZM36.0339 52.0853C35.7531 52.0853 35.525 51.8572 35.525 51.5778H35.225C35.225 52.0234 35.588 52.3853 36.0339 52.3853V52.0853ZM54.5703 52.0853H36.0339V52.3853H54.5703V52.0853Z" fill="white"/>
<path fill-rule="evenodd" clip-rule="evenodd" d="M40.4258 45.878C40.4258 43.1951 42.613 41.0125 45.3015 41.0125C47.99 41.0125 50.1772 43.1951 50.1772 45.878C50.1772 48.5609 47.99 50.7436 45.3015 50.7436C42.613 50.7436 40.4258 48.5609 40.4258 45.878ZM41.7436 45.8793C41.7436 47.8371 43.3397 49.4299 45.3015 49.4299C47.2634 49.4299 48.8595 47.8371 48.8595 45.8793C48.8595 43.9216 47.2634 42.3288 45.3015 42.3288C43.3397 42.3288 41.7436 43.9216 41.7436 45.8793Z" fill="white"/>
<path d="M45.3015 40.8625C42.5304 40.8625 40.2758 43.112 40.2758 45.878H40.5758C40.5758 43.2783 42.6955 41.1625 45.3015 41.1625V40.8625ZM50.3272 45.878C50.3272 43.112 48.0725 40.8625 45.3015 40.8625V41.1625C47.9074 41.1625 50.0272 43.2783 50.0272 45.878H50.3272ZM45.3015 50.8936C48.0725 50.8936 50.3272 48.644 50.3272 45.878H50.0272C50.0272 48.4778 47.9074 50.5936 45.3015 50.5936V50.8936ZM40.2758 45.878C40.2758 48.644 42.5304 50.8936 45.3015 50.8936V50.5936C42.6955 50.5936 40.5758 48.4778 40.5758 45.878H40.2758ZM45.3015 49.2799C43.4222 49.2799 41.8936 47.7539 41.8936 45.8793H41.5936C41.5936 47.9202 43.2571 49.5799 45.3015 49.5799V49.2799ZM48.7095 45.8793C48.7095 47.7539 47.1809 49.2799 45.3015 49.2799V49.5799C47.346 49.5799 49.0095 47.9202 49.0095 45.8793H48.7095ZM45.3015 42.4788C47.1809 42.4788 48.7095 44.0047 48.7095 45.8793H49.0095C49.0095 43.8384 47.346 42.1788 45.3015 42.1788V42.4788ZM41.8936 45.8793C41.8936 44.0047 43.4222 42.4788 45.3015 42.4788V42.1788C43.2571 42.1788 41.5936 43.8384 41.5936 45.8793H41.8936Z" fill="white"/>
<path d="M39.6794 41.0125H37.571C37.2071 41.0125 36.9121 41.3068 36.9121 41.67C36.9121 42.0331 37.2071 42.3275 37.571 42.3275H39.6794C40.0433 42.3275 40.3383 42.0331 40.3383 41.67C40.3383 41.3068 40.0433 41.0125 39.6794 41.0125Z" fill="white" stroke="white" stroke-width="0.3"/>
<path fill-rule="evenodd" clip-rule="evenodd" d="M2 0H12.1488V3H3V10.7447H0V2C0 0.89543 0.895431 0 2 0ZM0 79.2545V88C0 89.1046 0.89543 90 2 90H12.1488V87H3V79.2545H0ZM77.5493 90H88C89.1046 90 90 89.1046 90 88V79.2545H87V87H77.5493V90ZM90 2V10.7447H87V3H77.5493V0H88C89.1046 0 90 0.895431 90 2Z" fill="#011E41"/>
<g opacity="0.2">
<path d="M32.1875 10H10V32.1875H32.1875V10ZM27.75 27.75H14.4375V14.4375H27.75V27.75Z" fill="#011E41"/>
<path d="M23.3125 18.875H18.875V23.3125H23.3125V18.875Z" fill="#011E41"/>
<path d="M58.8125 10V32.1875H81V10H58.8125ZM76.5625 27.75H63.25V14.4375H76.5625V27.75Z" fill="#011E41"/>
<path d="M72.125 18.875H67.6875V23.3125H72.125V18.875Z" fill="#011E41"/>
<path d="M10 81H32.1875V58.8125H10V81ZM14.4375 63.25H27.75V76.5625H14.4375V63.25Z" fill="#011E41"/>
<path d="M23.3125 67.6875H18.875V72.125H23.3125V67.6875Z" fill="#011E41"/>
<path d="M54.375 10H45.5V14.4375H54.375V10Z" fill="#011E41"/>
<path d="M45.5 27.75H49.9375V23.3125H54.375V18.875H41.0625V14.4375H36.625V18.875V21.0938V23.3125H45.5V27.75Z" fill="#011E41"/>
<path d="M41.0625 27.75H36.625V32.1875H41.0625V27.75Z" fill="#011E41"/>
<path d="M54.375 32.1875H49.9375V36.625H36.625V41.0625H54.375V32.1875Z" fill="#011E41"/>
<path d="M14.4375 49.9375H18.875V45.5H14.4375V36.625H10V54.375H14.4375V49.9375Z" fill="#011E41"/>
<path d="M23.3125 36.625H18.875V41.0625H23.3125V36.625Z" fill="#011E41"/>
<path d="M36.625 54.375H45.5V49.9375H41.0625V45.5H32.1875V36.625H27.75V45.5H23.3125V54.375H27.75V49.9375H29.9688H32.1875H36.625V54.375Z" fill="#011E41"/>
<path d="M54.375 45.5H49.9375V54.375H54.375V45.5Z" fill="#011E41"/>
<path d="M49.9375 58.8125H36.625V63.25H45.5V76.5625H36.625V81H49.9375V76.5625H58.8125V72.125H49.9375V58.8125Z" fill="#011E41"/>
<path d="M41.0625 67.6875H36.625V72.125H41.0625V67.6875Z" fill="#011E41"/>
<path d="M58.8125 58.8125H54.375V67.6875H58.8125V58.8125Z" fill="#011E41"/>
<path d="M76.5625 67.6875H63.25V81H67.6875V72.125H76.5625V67.6875Z" fill="#011E41"/>
<path d="M81 76.5625H72.125V81H81V76.5625Z" fill="#011E41"/>
<path d="M81 58.8125H76.5625V63.25H81V58.8125Z" fill="#011E41"/>
<path d="M63.25 63.25H67.6875V49.9375H58.8125V54.375H63.25V63.25Z" fill="#011E41"/>
<path d="M72.125 41.0625H67.6875V36.625H63.25V41.0625H58.8125V45.5H76.5625V41.0625H81V36.625H72.125V41.0625Z" fill="#011E41"/>
<path d="M81 49.9375H72.125V54.375H81V49.9375Z" fill="#011E41"/>
</g>
</svg>
