<?xml version="1.0" encoding="utf-8"?>
<!-- Generator: Adobe Illustrator 22.0.0, SVG Export Plug-In . SVG Version: 6.00 Build 0)  -->
<svg version="1.1" id="Layer_1" xmlns="http://www.w3.org/2000/svg" xmlns:xlink="http://www.w3.org/1999/xlink" x="0px" y="0px"
	 viewBox="0 0 289.5 140.6" style="enable-background:new 0 0 289.5 140.6;" xml:space="preserve">
<style type="text/css">
	.st0{fill:#D72132;}
	.st1{fill:#FFFFFF;}
</style>
<rect y="-14.5" class="st0" width="289.5" height="155.5"/>
<g>
	<path class="st1" d="M76.2,68c2.4-0.8,3.5-2.6,3.5-5.6c0-4.5-2.3-6.5-7.4-6.5h-9.9v4.3H64v17.3h-1.6v4.4h8.9c6.5,0,9.1-2.1,9.1-7.5
		C80.4,70.9,79,68.7,76.2,68z M69.7,59.7h1.2c2.4,0,3.3,1,3.3,3.6c0,2.4-0.9,3.4-3.3,3.4h-1.2V59.7z M71.2,77.9h-1.5v-7.8l1.6,0
		c2.4,0,3.4,1.1,3.4,3.8C74.7,76.9,73.8,77.9,71.2,77.9z"/>
	<path class="st1" d="M122.1,55c-4.1,0-5.7,2-5.7,7c0,0.4,0,0.8,0,1.2H114v4.1h2.5v10.4h-2v4.3h10.3v-4.3h-2.5V67.3h3.3v-4.1h-3.3
		v-1.8c0-1.8,0.4-2.2,1.5-2.2c0.3,0,1,0,1.4,0.1l0.4,0v-4.2l-0.3,0C124.3,55.1,123,55,122.1,55z"/>
	<polygon class="st1" points="159.2,60.2 160.9,60.2 160.9,77.5 159.2,77.5 159.2,81.9 176.2,81.9 176.2,73.3 171.1,73.3 
		171.1,77.5 166.9,77.5 166.9,70.9 172.2,70.9 172.2,66.3 166.9,66.3 166.9,60.2 171.1,60.2 171.1,64 176.2,64 176.2,55.9 
		159.2,55.9 	"/>
	<path class="st1" d="M202.6,57.9l-5.6,1.9l-0.2,0.1l-0.1,3.3H195v4.2h1.6c0,2.9-0.1,5.7-0.1,8.6v0.4c0,4.3,1.6,6,5.6,6
		c1.2,0,2.2-0.1,3-0.2l0,0v-4.3l-0.1,0c-0.4,0-0.6,0-0.9,0c-1.4,0-1.8-0.5-1.8-2.3l0.1-8.2h2.7v-4.2h-2.6L202.6,57.9z"/>
	<path class="st1" d="M233.7,62.8c-2,0-3.5,0.9-4.4,2.7v-2.3h-6.5v4.2h1.3v10.3h-1.3v4.3h8.8v-4.3h-1.7v-4.8c0-3.1,1.1-4.5,3.7-4.5
		c0.3,0,0.5,0,0.8,0l0.4,0v-5.5l-0.3,0C234.2,62.8,234,62.8,233.7,62.8z"/>
	<path class="st1" d="M192.9,69.5c0-4.7-2.1-6.8-7.1-6.8c-4.6,0-6.7,1.8-6.7,5.7h5.4v-0.5c0-0.9,0.5-1.5,1.5-1.5c1,0,1.5,0.6,1.5,2
		v2.2h-1.3c-4.6,0-7.6,1.7-7.6,5.6c0,3.9,1.7,5.9,4.9,5.9c2,0,3.5-0.7,4.6-2.3v2h6.2v-4.3h-1.2V69.5z M187.7,74.7
		c0,2.1-0.9,3.5-2.3,3.5c-1.1,0-1.7-0.8-1.7-2.3c0-2.2,1.3-2.6,3.8-2.6h0.3V74.7z"/>
	<path class="st1" d="M213.9,62.7c-4.6,0-6.7,2.5-6.7,7.8v4.3c0,5,2.3,7.6,6.6,7.6c4.2,0,6.6-2.3,6.8-6.4h-5.2
		c-0.1,2-0.6,2.4-1.4,2.4c-1,0-1.5-0.9-1.5-2.8v-2h8v-4.3C220.5,65,218.2,62.7,213.9,62.7z M215.6,70.5l-3,0v-1.7
		c0-1.8,0.4-2.6,1.5-2.6c1.1,0,1.5,0.8,1.5,2.4V70.5z"/>
	<path class="st1" d="M105.2,62.7c-4.6,0-6.7,2.5-6.7,7.8v4.3c0,5,2.3,7.6,6.6,7.6c4.2,0,6.6-2.3,6.8-6.4h-5.2
		c-0.1,2-0.6,2.4-1.4,2.4c-1,0-1.5-0.9-1.5-2.8v-2h8v-4.3C111.9,65,109.6,62.7,105.2,62.7z M107,70.5l-3,0v-1.7
		c0-1.8,0.4-2.6,1.5-2.6c1.1,0,1.5,0.8,1.5,2.4V70.5z"/>
	<path class="st1" d="M89.4,62.7c-4.6,0-6.7,2.5-6.7,7.8v4.3c0,5,2.3,7.6,6.6,7.6c4.2,0,6.6-2.3,6.8-6.4h-5.2
		c-0.1,2-0.6,2.4-1.4,2.4c-1,0-1.5-0.9-1.5-2.8v-2h8v-4.3C96.1,65,93.8,62.7,89.4,62.7z M91.1,70.5l-3,0v-1.7c0-1.8,0.4-2.6,1.5-2.6
		c1.1,0,1.5,0.8,1.5,2.4V70.5z"/>
	<path class="st1" d="M166.4,49.1c3.6-3.9,3.9-7.2,3.8-8c0-0.5-0.4-0.8-0.7-0.9c-0.6-0.2-1.2-0.1-1.5,0.4c-0.4,0.5-0.6,2.1-1.4,3.7
		c-0.8,1.6-2.2,3.2-4.3,4.2c-3.9,2-8.6,2.1-10.5,2.1c-1.1-0.1-1.1,0.1-1.3,0.5c-0.1,0.4,2.4,8.7-1.6,23.2
		c-3.7,13.7-1.3,23.6-1.5,22.9c-1.9,0.6-4.3,0.5-6.4-0.1c0,0-4.4-10.3-6.4-23.4c-1.5-9.8-0.5-14.3,0.1-16.5c0.7-2.5,2.6-5.3,2.6-5.8
		c0-0.5-0.6-0.6-0.8-0.7c-0.2-0.1-8.4-0.8-12.6-3.6c-1.1-0.7-2-1.3-2.8-2.1c-0.7-0.7-0.9-1.1-1.5-1.9c-0.6-1.2-0.8-2.5-1-2.8
		c-0.2-0.3-0.6-0.6-1-0.6c-0.4,0-1.1,0.2-1.2,1c-0.1,0.7,0.1,1.3,0.3,2.1c0.3,1.1,0.9,2.2,1.8,3.4c0.7,1,2.3,3.2,6.1,5.5
		c3.9,2.3,6.7,2.3,6.7,2.3s-1.4,3.2-1.4,10c0,2.7,0.2,5.9,0.8,9.6c1.5,9.5,5.7,21.2,7.2,25.3c0.4,1,1.2,1.6,2.2,1.8
		c2.5,0.4,5,0.5,7.5,0.2c1.7-0.2,3-1.8,2.8-3.5c-0.2-2.6-0.4-6.6,0.2-12.2c0.4-4.1,1.6-9.1,3-14.3c2.4-9.7,0.9-17,0.9-17
		S162.5,53.4,166.4,49.1z"/>
	<path class="st1" d="M240.1,49.9l-84-22.4c-7.4-2-15.3-2-22.7,0l-84,22.5c-19.7,5.3-19.7,33.2,0,38.4l84,22.4c7.4,2,15.2,2,22.7,0
		l84-22.4C259.8,83.1,259.8,55.2,240.1,49.9z M238.8,83.2l-84.5,22.6c-6.2,1.7-12.8,1.7-19,0L50.7,83.2c-14.4-3.9-14.4-24.3,0-28.2
		l84.5-22.6c6.2-1.7,12.8-1.7,19,0L238.8,55C253.2,58.9,253.2,79.4,238.8,83.2z"/>
</g>
</svg>
