<svg width="328" height="328" viewBox="0 0 328 328" fill="none" xmlns="http://www.w3.org/2000/svg">
<path fill-rule="evenodd" clip-rule="evenodd" d="M83.5359 40H244.754C248.177 40 251.29 42.8165 250.978 46.5718V271.89C250.978 275.645 248.177 278.462 244.443 278.462H83.5359C79.8011 278.462 77 275.645 77 271.89V46.5718C77 42.8165 79.8011 40 83.5359 40ZM244.754 274.08C245.999 274.08 247.244 272.829 247.244 271.577L246.932 46.2588C246.932 45.0071 245.999 43.7553 244.443 43.7553H83.5359C82.2909 43.7553 81.046 45.0071 81.046 46.2588V271.577C81.046 272.829 81.9797 274.08 83.5359 274.08H244.754Z" fill="#011E41"/>
<path fill-rule="evenodd" clip-rule="evenodd" d="M98.0312 163.077C98.0312 125.996 128.085 95.7695 164.954 95.7695C201.824 95.7695 231.877 125.996 231.877 163.077C231.877 200.159 201.824 230.385 164.954 230.385C128.085 230.385 98.0312 200.159 98.0312 163.077ZM101.438 163.389C101.438 198.601 129.942 227.269 164.952 227.269C199.963 227.269 228.467 198.601 228.467 163.077C228.467 127.865 199.963 99.1973 164.952 99.1973C129.942 99.1973 101.438 127.865 101.438 163.389Z" fill="#011E41"/>
<path fill-rule="evenodd" clip-rule="evenodd" d="M113.328 164.04C113.328 136.042 136.161 113.078 163.998 113.078C191.836 113.078 214.669 135.728 214.669 164.04C214.669 192.037 191.836 215.001 163.998 215.001C136.161 215.001 113.328 192.037 113.328 164.04ZM116.769 163.725C116.769 189.835 138.038 211.226 163.998 211.226C189.959 211.226 211.228 190.15 211.228 163.725C211.228 137.615 189.959 116.224 163.998 116.224C138.038 116.224 116.769 137.615 116.769 163.725Z" fill="#011E41"/>
<path d="M235.76 286.154H94.152C92.9153 286.154 92.2969 287.116 92.2969 288.077C92.2969 289.039 93.2244 290 94.152 290H235.76C236.997 290 237.616 289.039 237.616 288.077C237.616 287.116 236.997 286.154 235.76 286.154Z" fill="#011E41"/>
<path fill-rule="evenodd" clip-rule="evenodd" d="M176.427 69.8086C176.427 76.8599 170.691 82.3086 163.999 82.3086C157.307 82.3086 151.57 76.5394 151.57 69.8086C151.57 62.7573 157.307 57.3086 163.999 57.3086C171.01 57.3086 176.427 63.0778 176.427 69.8086ZM172.92 69.488C172.92 64.6803 169.096 60.5137 163.997 60.5137C158.898 60.5137 155.074 64.6803 155.074 69.488C155.074 74.2957 159.217 78.4624 163.997 78.4624C168.778 78.4624 172.92 74.6162 172.92 69.488Z" fill="#011E41"/>
</svg>
